# xmcd
#
# Track frame offsets:
# 150
# 24288
# 43035
# 60680
# 80886
# 98142
# 113988
# 128268
# 145034
# 164015
# 181033
# 207188
#
# Disc length: 3004 seconds
#
#
# Revision: 5
# Processed by: cddbd v1.5.2PL0 Copyright (c) Steve Scherf et al.
# Submitted via: FreeRIP 2.944 
#
DISCID=9b0bba0c
DTITLE=Stanfour - Rise And Fall
DYEAR=2010
DGENRE=Rock
TTITLE0=Wishing You Well
TTITLE1=Sail On
TTITLE2=Life Without You
TTITLE3=Say You Care
TTITLE4=Tired Again
TTITLE5=Face To Face
TTITLE6=Take Me Or Leave Me
TTITLE7=Bittersweet
TTITLE8=Stars
TTITLE9=I'll Wait For You
TTITLE10=Everything Has Changed
TTITLE11=Life Without You feat. Esmée Denters
EXTD=
EXTT0=
EXTT1=
EXTT2=
EXTT3=
EXTT4=
EXTT5=
EXTT6=
EXTT7=
EXTT8=
EXTT9=
EXTT10=
EXTT11=
PLAYORDER=
